<?xml version="1.0" encoding="UTF-8" standalone="no"?>
<!DOCTYPE svg PUBLIC "-//W3C//DTD SVG 1.1//EN" "http://www.w3.org/Graphics/SVG/1.1/DTD/svg11.dtd">
<svg width="100%" height="100%" viewBox="0 0 512 512" version="1.1" xmlns="http://www.w3.org/2000/svg" xmlns:xlink="http://www.w3.org/1999/xlink" xml:space="preserve" xmlns:serif="http://www.serif.com/" style="fill-rule:evenodd;clip-rule:evenodd;stroke-linejoin:round;stroke-miterlimit:2;">
    <g transform="matrix(3.09606,0,0,3.09606,23.7953,23.7953)">
        <path d="M0,75C0,18.75 18.75,0 75,0C131.25,0 150,18.75 150,75C150,131.25 131.25,150 75,150C18.75,150 0,131.25 0,75" style="fill:rgb(255,0,46);fill-rule:nonzero;"/>
        <clipPath id="_clip1">
            <path d="M0,75C0,18.75 18.75,0 75,0C131.25,0 150,18.75 150,75C150,131.25 131.25,150 75,150C18.75,150 0,131.25 0,75" clip-rule="nonzero"/>
        </clipPath>
        <g clip-path="url(#_clip1)">
            <g transform="matrix(1.27384e-17,-0.208034,0.396893,2.43027e-17,32.1139,90.6676)">
                <path d="M0,75C0,18.75 18.75,0 75,0C131.25,0 150,18.75 150,75C150,131.25 131.25,150 75,150C18.75,150 0,131.25 0,75" style="fill:white;fill-rule:nonzero;"/>
            </g>
            <g transform="matrix(0.208034,0,0,0.758915,27.0551,19.3049)">
                <path d="M0,75C0,18.75 18.75,0 75,0C131.25,0 150,18.75 150,75C150,131.25 131.25,150 75,150C18.75,150 0,131.25 0,75" style="fill:white;fill-rule:nonzero;"/>
            </g>
            <g transform="matrix(-1.70902e-17,-0.208034,0.634379,-3.54843e-17,31.9397,46.0015)">
                <path d="M0,75C0,18.75 18.75,0 75,0C131.25,0 150,18.75 150,75C150,131.25 131.25,150 75,150C18.75,150 0,131.25 0,75" style="fill:white;fill-rule:nonzero;"/>
            </g>
        </g>
    </g>
</svg>
